<svg xmlns="http://www.w3.org/2000/svg" viewBox="0 0 120 40">
  <path fill="#2C3E8C" d="M30 8c-8.3 0-15 6.7-15 15s6.7 15 15 15c5.5 0 10.3-3 12.9-7.4.5-.8.2-1.9-.6-2.4-.8-.5-1.9-.2-2.4.6-2 3.4-5.7 5.7-9.9 5.7-6.4 0-11.5-5.1-11.5-11.5S23.6 11.5 30 11.5c4.2 0 7.9 2.3 9.9 5.7.5.8 1.6 1.1 2.4.6.8-.5 1.1-1.6.6-2.4C40.3 11 35.5 8 30 8z"/>
  <circle fill="#2C3E8C" cx="30" cy="23" r="4"/>
  <path fill="#2C3E8C" d="M60 15h-4v16h4V15zM70 15c-4.4 0-8 3.6-8 8s3.6 8 8 8 8-3.6 8-8-3.6-8-8-8zm0 12c-2.2 0-4-1.8-4-4s1.8-4 4-4 4 1.8 4 4-1.8 4-4 4zM90 15v8c0 2.2-1.8 4-4 4s-4-1.8-4-4v-8h-4v8c0 4.4 3.6 8 8 8s8-3.6 8-8v-8h-4zM110 15h-4v8c0 2.2-1.8 4-4 4s-4-1.8-4-4v-8h-4v8c0 4.4 3.6 8 8 8s8-3.6 8-8v-8z"/>
</svg>