<svg xmlns="http://www.w3.org/2000/svg" viewBox="0 0 109.5 124.5">
  <path fill="#95BF47" d="M95.9 23.9c-.1-.6-.6-1-1.1-1-.5 0-9.3-.2-9.3-.2s-7.4-7.2-8.1-7.9c-.7-.7-2.2-.5-2.7-.3 0 0-1.4.4-3.7 1.1-.4-1.3-1-2.8-1.8-4.4-2.6-5-6.5-7.7-11.1-7.7-.3 0-.6 0-1 .1-.1-.2-.3-.3-.4-.5-2-2.2-4.6-3.2-7.7-3.1-6 .2-12 4.5-16.8 12.2-3.4 5.4-6 12.2-6.7 17.5-6.9 2.1-11.7 3.6-11.8 3.7-3.5 1.1-3.6 1.2-4 4.5-.3 2.5-9.5 73.1-9.5 73.1l75.6 13.1V23.9h-.1zm-28.3-7l-12.3 3.8c1.2-4.6 3.5-9.2 6.3-12.2 1-.1.1 2.2 1.8 3.2 1.6 1.9 4.2 4.1 4.2 5.2zm-8.5-15.8c1.2 0 2.2.3 3.1.8-2.9 1.4-6 4.9-8.2 10.6l-9.8 3c2-6.9 6.8-14.3 14.9-14.4z"/>
  <path fill="#5E8E3E" d="M94.8 22.9c-.5 0-9.3-.2-9.3-.2s-7.4-7.2-8.1-7.9c-.3-.3-.6-.4-1-.4v109.5l28.3-6.1S95 23.5 95 22.9c-.1-.6-.7-1-1.2-1z"/>
  <path fill="#FFF" d="M58 39.9l-4.4 13s-3.8-2-8.4-1.7c-6.7.4-6.8 4.7-6.7 5.8.4 5.7 15.3 6.9 16.1 20.2.6 10.5-5.6 17.6-14.6 18.2-10.8.7-16.7-5.7-16.7-5.7l2.3-9.7s5.9 4.5 10.7 4.2c3.1-.2 4.2-2.7 4.1-4.5-.5-7.4-12.6-7-13.4-19.1-.6-10.2 6.1-20.5 20.9-21.5 5.8-.3 8.7 1.1 8.7 1.1l.4-.3z"/>
</svg>