<svg viewBox="0 0 109 124" fill="none" xmlns="http://www.w3.org/2000/svg">
  <path d="M95.8 23.4c-.1-.6-.6-1-1.1-1-.5 0-10.2-.2-10.2-.2s-8.1-7.9-8.9-8.7c-.8-.8-2.4-.6-3-.4-.1 0-1.6.5-4.3 1.3-2.5-7.3-7-14-14.8-14h-.7c-2.2-2.9-5-4.2-7.3-4.2C32.4-3.9 25.9 12.6 24 19.5c-5 1.5-8.5 2.6-9 2.8-2.8.9-2.9.9-3.2 3.6C11.5 28.2 0 118.9 0 118.9l76.2 13.1 41-10.2S95.9 24 95.8 23.4zM66.4 17.3l-6.5 2c0-5.1-.7-8.3-1.8-10.7 4.5.9 6.8 5.7 8.3 8.7zm-12.2 3.7l-14 4.3c1.4-5.2 4-10.4 9.1-12.3 2 5.1 4.9 8 4.9 8zm-6.4-19.5c.6 0 1.1.2 1.6.5-6.8 3.2-14.1 11.3-17.2 27.4L22.5 32c2.4-8.2 8.3-30.5 25.3-30.5z" fill="#95BF47"/>
  <path d="M94.7 22.4c-.5 0-10.2-.2-10.2-.2s-8.1-7.9-8.9-8.7c-.3-.3-.7-.5-1.1-.5v111l41-10.2S95.9 24 95.8 23.4c-.1-.6-.6-1-1.1-1z" fill="#5E8E3E"/>
  <path d="M46 40.9l-4.8 14.3s-4.3-2.3-9.5-2.3c-7.7 0-8.1 4.8-8.1 6 0 6.6 17.2 9.1 17.2 24.5 0 12.1-7.7 19.9-18.1 19.9-12.5 0-18.9-7.8-18.9-7.8l3.4-11.1s6.6 5.6 12.1 5.6c3.6 0 5.1-2.8 5.1-4.9 0-8.6-14.1-9-14.1-23.1 0-11.9 8.5-23.4 25.7-23.4 6.7 0 10 2.3 10 2.3z" fill="#fff"/>
</svg>
