<svg xmlns="http://www.w3.org/2000/svg" viewBox="0 0 120 40">
  <g fill="#F71963">
    <!-- V shape with triangle -->
    <path d="M5 8 L15 32 L25 8 L20 8 L15 22 L10 8 Z"/>
    <!-- Triangle accent -->
    <path d="M22 28 L30 12 L38 28 Z M28 24 L30 18 L32 24 Z" fill-rule="evenodd"/>
    <!-- T -->
    <rect x="42" y="8" width="20" height="5"/>
    <rect x="49" y="13" width="6" height="19"/>
    <!-- E -->
    <rect x="66" y="8" width="18" height="5"/>
    <rect x="66" y="8" width="5" height="24"/>
    <rect x="66" y="18" width="14" height="4"/>
    <rect x="66" y="27" width="18" height="5"/>
    <!-- X -->
    <path d="M88 8 L95 18 L88 32 L94 32 L98.5 24 L103 32 L109 32 L102 18 L109 8 L103 8 L98.5 14 L94 8 Z"/>
  </g>
</svg>