<svg xmlns="http://www.w3.org/2000/svg" viewBox="0 0 120 30">
  <path fill="#96588A" d="M10 3C4.5 3 0 7.5 0 13v4c0 5.5 4.5 10 10 10h100c5.5 0 10-4.5 10-10v-4c0-5.5-4.5-10-10-10H10zm5 7c1.7 0 3 1.3 3 3v6c0 1.7-1.3 3-3 3s-3-1.3-3-3v-6c0-1.7 1.3-3 3-3zm15 0c1.7 0 3 1.3 3 3v6c0 1.7-1.3 3-3 3s-3-1.3-3-3v-6c0-1.7 1.3-3 3-3zm15 0c1.7 0 3 1.3 3 3v6c0 1.7-1.3 3-3 3s-3-1.3-3-3v-6c0-1.7 1.3-3 3-3zm20 0l5 12 5-12h5l-8 16h-4l-8-16h5zm20 0c4.4 0 8 3.6 8 8s-3.6 8-8 8-8-3.6-8-8 3.6-8 8-8zm0 4c-2.2 0-4 1.8-4 4s1.8 4 4 4 4-1.8 4-4-1.8-4-4-4z"/>
</svg>